<svg xmlns="http://www.w3.org/2000/svg" viewBox="0 0 233.6 222.26"><defs><style>.cls-1{fill:none;stroke:blue;stroke-miterlimit:10;stroke-width:0.03px;}</style></defs><title>Asset 1</title><g id="Layer_2" data-name="Layer 2"><g id="ADD_your_design_here" data-name="ADD your design here"><path class="cls-1" d="M225.51,0H175.63V13.86h41.08V94h4.19v32.6h-4.19v78.6H16.87V13.86h34V0H8.09A8.08,8.08,0,0,0,0,8.09V214.17a8.08,8.08,0,0,0,8.08,8.08H225.51a8.08,8.08,0,0,0,8.08-8.08V8.09A8.08,8.08,0,0,0,225.51,0ZM9.09,4A5.11,5.11,0,1,1,4,9.13,5.11,5.11,0,0,1,9.09,4Zm0,214.28a5.11,5.11,0,1,1,5.1-5.11A5.11,5.11,0,0,1,9.09,218.31Zm215.43,0a5.11,5.11,0,1,1,5.1-5.11A5.11,5.11,0,0,1,224.52,218.31Zm0-204.07a5.11,5.11,0,1,1,5.1-5.11A5.11,5.11,0,0,1,224.52,14.24Z"/></g></g></svg>